<svg width="56" height="56" viewBox="0 0 56 56" fill="none" xmlns="http://www.w3.org/2000/svg">
<path d="M26.757 52.8921C26.795 53.337 26.9202 53.77 27.1254 54.1664C27.3306 54.5628 27.6118 54.9148 27.9529 55.2023C28.2941 55.4897 28.6884 55.707 29.1134 55.8417C29.5384 55.9764 29.9858 56.0259 30.4299 55.9873C35.8443 55.5148 41.0044 53.4742 45.2807 50.1144C49.5571 46.7546 52.7648 42.2208 54.5126 37.066C56.2604 31.9113 56.4728 26.3584 55.1237 21.0849C53.7747 15.8113 50.9226 11.045 46.9153 7.36738C42.9081 3.68974 37.9189 1.25976 32.5565 0.373863C27.194 -0.512035 21.6901 0.18445 16.7161 2.37834C11.742 4.57224 7.51295 8.16871 4.54469 12.729C1.57644 17.2894 -0.00266608 22.6164 3.37891e-06 28.0603C3.37891e-06 28.9614 0.357375 29.8256 0.993503 30.4628C1.62963 31.1 2.49241 31.458 3.39203 31.458C4.29165 31.458 5.15442 31.1 5.79055 30.4628C6.42668 29.8256 6.78405 28.9614 6.78405 28.0603C6.77232 23.9132 7.96745 19.8526 10.2233 16.3751C12.4791 12.8976 15.6978 10.154 19.4857 8.47992C23.2736 6.80581 27.4664 6.27373 31.5514 6.9488C35.6365 7.62387 39.4365 9.4768 42.4868 12.281C45.5371 15.0851 47.7054 18.7189 48.7265 22.738C49.7476 26.757 49.5772 30.9869 48.2361 34.9105C46.8951 38.834 44.4416 42.281 41.1757 44.8299C37.9098 47.3788 33.973 48.9191 29.847 49.2623C28.9585 49.3377 28.1355 49.7612 27.5569 50.4408C26.9784 51.1205 26.6909 52.0013 26.757 52.8921Z" fill="url(#paint0_linear_427_14833)"/>
<defs>
<linearGradient id="paint0_linear_427_14833" x1="28" y1="0" x2="28" y2="56" gradientUnits="userSpaceOnUse">
<stop stop-color="#78E76F"/>
<stop offset="1" stop-color="#58D84E"/>
</linearGradient>
</defs>
</svg>
